HIERARCHY
ROOT Hips
{
    OFFSET 0.000000 0.000000 0.000000
    CHANNELS 6 Xposition Yposition Zposition Zrotation Xrotation Yrotation
    JOINT Spine
    {
        OFFSET -0.000000 14.517291 0.000000
        CHANNELS 3 Zrotation Xrotation Yrotation
        JOINT Spine1
        {
            OFFSET -0.000000 37.558300 0.000000
            CHANNELS 3 Zrotation Xrotation Yrotation
            JOINT Neck
            {
                OFFSET -0.000000 37.404057 3.400369
                CHANNELS 3 Zrotation Xrotation Yrotation
                JOINT Head
                {
                    OFFSET -0.000000 24.785618 -3.540803
                    CHANNELS 3 Zrotation Xrotation Yrotation
                    End Site
                    {
                        OFFSET -0.000000 35.408028 0.000000
                    }
                }
            }
            JOINT LeftShoulder
            {
                OFFSET 6.992933 33.973492 -0.192664
                CHANNELS 3 Zrotation Xrotation Yrotation
                JOINT LeftArm
                {
                    OFFSET 21.527611 0.000000 0.000000
                    CHANNELS 3 Zrotation Xrotation Yrotation
                    JOINT LeftForeArm
                    {
                        OFFSET 56.353916 0.000000 0.000000
                        CHANNELS 3 Zrotation Xrotation Yrotation
                        JOINT LeftHand
                        {
                            OFFSET 47.774071 0.000000 0.000000
                            CHANNELS 3 Zrotation Xrotation Yrotation
                            End Site
                            {
                                OFFSET 26.556021 0.000000 0.000000
                            }
                        }
                    }
                }
            }
            JOINT RightShoulder
            {
                OFFSET -7.065357 33.973492 -0.192664
                CHANNELS 3 Zrotation Xrotation Yrotation
                JOINT RightArm
                {
                    OFFSET -21.527611 0.000000 0.000000
                    CHANNELS 3 Zrotation Xrotation Yrotation
                    JOINT RightForeArm
                    {
                        OFFSET -56.353916 0.000000 0.000000
                        CHANNELS 3 Zrotation Xrotation Yrotation
                        JOINT RightHand
                        {
                            OFFSET -47.774071 0.000000 0.000000
                            CHANNELS 3 Zrotation Xrotation Yrotation
                            End Site
                            {
                                OFFSET -26.556021 0.000000 0.000000
                            }
                        }
                    }
                }
            }
        }
    }
    JOINT LeftUpLeg
    {
        OFFSET 17.704014 0.000000 0.000000
        CHANNELS 3 Zrotation Xrotation Yrotation
        JOINT LeftLeg
        {
            OFFSET -0.000000 -81.181816 0.000000
            CHANNELS 3 Zrotation Xrotation Yrotation
            JOINT LeftFoot
            {
                OFFSET -0.000000 -62.821102 0.000000
                CHANNELS 3 Zrotation Xrotation Yrotation
                JOINT LeftToeBase
                {
                    OFFSET -0.000000 -11.507608 26.556021
                    CHANNELS 3 Zrotation Xrotation Yrotation
                    End Site
                    {
                        OFFSET -0.000000 0.000000 7.081605
                    }
                }
            }
        }
    }
    JOINT RightUpLeg
    {
        OFFSET -17.704014 0.000000 0.000000
        CHANNELS 3 Zrotation Xrotation Yrotation
        JOINT RightLeg
        {
            OFFSET -0.000000 -81.181816 0.000000
            CHANNELS 3 Zrotation Xrotation Yrotation
            JOINT RightFoot
            {
                OFFSET -0.000000 -62.821102 0.000000
                CHANNELS 3 Zrotation Xrotation Yrotation
                JOINT RightToeBase
                {
                    OFFSET -0.000000 -11.507608 26.556021
                    CHANNELS 3 Zrotation Xrotation Yrotation
                    End Site
                    {
                        OFFSET -0.000000 0.000000 7.081605
                    }
                }
            }
        }
    }
}
MOTION
Frames:    6
Frame Time:    0.008333
26.854500    144.672867    48.952206    4.665972    2.714227    -61.224697    0.277744    -0.476421    -0.886465    -2.479069    1.472655    -0.266583    23.622808    7.793647    20.946644    -17.698683    1.963960    17.805857    5.040512    14.797789    -15.826816    -44.217934    22.810177    -50.591568    34.018265    -46.192570    -76.336998    -12.549927    -21.777601    -16.060677    -4.858027    0.198465    -7.242809    29.083399    -22.259048    44.050697    14.040094    -26.132687    109.353691    27.365854    -35.284149    37.358894    37.729225    -24.078810    31.116188    -32.907482    44.321415    7.102169    1.427434    -14.548850    44.140289    0.000000    0.000000    0.000000    -31.643742    -14.055346    -17.904497    4.250209    35.367538    -6.465694    20.108660    -11.595590    7.390875    0.000000    0.000000    0.000000    
26.867008    144.690063    48.937439    4.681615    2.722989    -61.229965    0.259818    -0.474457    -0.894696    -2.468723    1.452599    -0.269703    23.625446    7.782450    20.942619    -17.679386    1.986390    17.804739    5.041746    14.828367    -15.827426    -44.179657    22.830971    -50.623772    33.887127    -46.167645    -76.428963    -12.476243    -21.823322    -16.031519    -4.860084    0.196351    -7.242719    29.057867    -22.235874    44.047764    14.022111    -26.166832    109.356354    27.378582    -35.290901    37.357224    37.719852    -24.086943    31.130848    -32.863106    44.285942    7.088712    1.433632    -14.501954    44.126240    0.000000    0.000000    0.000000    -31.632338    -14.073490    -17.923035    4.225599    35.344776    -6.441881    20.100220    -11.574819    7.387221    0.000000    0.000000    0.000000    
26.877823    144.708344    48.926353    4.694611    2.731227    -61.243546    0.246453    -0.476683    -0.896670    -2.468391    1.441075    -0.270720    23.647205    7.758203    20.944912    -17.676302    2.034996    17.807869    5.048461    14.831309    -15.836046    -44.165627    22.834639    -50.634232    33.687962    -46.118744    -76.575783    -12.363896    -21.876108    -15.975627    -4.842777    0.183730    -7.241756    29.011745    -22.216158    44.033726    14.027889    -26.188129    109.365829    27.380095    -35.313171    37.387524    37.715389    -24.088806    31.152393    -32.825184    44.264301    7.094291    1.401649    -14.500398    44.100689    0.000000    0.000000    0.000000    -31.620949    -14.093529    -17.908918    4.231650    35.322445    -6.446478    20.080132    -11.563387    7.361061    0.000000    0.000000    0.000000    
26.892284    144.724945    48.916031    4.708548    2.737282    -61.251381    0.234591    -0.469196    -0.906468    -2.462253    1.412492    -0.274662    23.632753    7.733086    20.946033    -17.630054    2.091872    17.818993    5.028132    14.841908    -15.821950    -44.103714    22.835243    -50.661560    33.463478    -46.083527    -76.728020    -12.284193    -21.959599    -15.945416    -4.846697    0.193443    -7.241957    29.001135    -22.213417    44.042835    14.025599    -26.193617    109.371162    27.404779    -35.307293    37.399590    37.706509    -24.093824    31.168581    -32.797104    44.238689    7.101105    1.403473    -14.472159    44.076988    0.000000    0.000000    0.000000    -31.614426    -14.107080    -17.918131    4.219715    35.293751    -6.430243    20.066227    -11.539260    7.351675    0.000000    0.000000    0.000000    
26.907766    144.741898    48.909718    4.720161    2.742389    -61.267433    0.237652    -0.455759    -0.906849    -2.483270    1.372655    -0.275337    23.629940    7.712115    20.941734    -17.587948    2.148517    17.823799    5.026454    14.840783    -15.815820    -44.047440    22.834082    -50.681370    33.261974    -46.041904    -76.858551    -12.201016    -22.026474    -15.914168    -4.840598    0.205028    -7.238785    28.990675    -22.217670    44.039879    14.025884    -26.187086    109.374893    27.407797    -35.301498    37.401524    37.699867    -24.096350    31.185902    -32.770294    44.222847    7.073228    1.392555    -14.458576    44.098145    0.000000    0.000000    0.000000    -31.604225    -14.120435    -17.910795    4.217359    35.257153    -6.450706    20.054100    -11.513144    7.345444    0.000000    0.000000    0.000000    
26.919958    144.753693    48.909481    4.726434    2.746074    -61.284985    0.242880    -0.451626    -0.905284    -2.495514    1.355956    -0.274979    23.640438    7.702386    20.947420    -17.596119    2.190581    17.832277    5.013472    14.828797    -15.810719    -43.982758    22.840340    -50.702499    33.154350    -46.016212    -76.916962    -12.173086    -22.062685    -15.879797    -4.837821    0.207342    -7.239678    28.974491    -22.213228    44.041946    14.024316    -26.199528    109.381203    27.430370    -35.301018    37.425236    37.695946    -24.086317    31.190165    -32.773247    44.194073    7.101172    1.403999    -14.447019    44.086067    0.000000    0.000000    0.000000    -31.593519    -14.128554    -17.919390    4.194185    35.228020    -6.407635    20.043388    -11.502841    7.329627    0.000000    0.000000    0.000000    
